<svg width="236" height="66" viewBox="0 0 236 66" fill="none" xmlns="http://www.w3.org/2000/svg">
    <path fill-rule="evenodd" clip-rule="evenodd"
          d="M39.9305 44.8396L39.5815 45.5233C39.1785 46.3623 39.0224 46.6403 38.5116 47.3588C36.0412 45.8006 35.676 44.7426 34.2325 43.8322C33.0173 44.5987 31.9108 46.2988 29.1402 47.8524C26.7254 49.2065 25.5193 49.8777 21.6628 49.8777L25.7607 40.3865C27.6017 36.5269 28.1049 35.2078 32.6999 33.8509L33.5901 33.4961C34.4976 33.1247 33.7275 33.7005 34.4698 32.9742C35.9266 31.5487 37.6683 27.6305 38.7404 25.4065L40.5273 21.5865C41.022 20.2592 41.5697 20.156 42.2558 17.3818C43.574 17.6709 44.7449 18.5427 46.0002 18.6412C45.9727 19.7968 45.9496 19.5841 45.4 20.3431C44.2959 21.8679 43.2315 24.9117 42.3286 26.7444L41.8985 27.8745C41.6243 28.4827 41.3583 28.7813 41.1091 29.4009L39.3368 34.5488C39.2898 35.347 39.4799 35.7163 39.7578 36.3593C39.9024 36.6931 39.9587 36.8244 40.0794 37.0656C42.1879 41.2837 40.9222 42.154 39.9306 44.8397L39.9305 44.8396ZM17.9187 49.3739C13.3296 49.3739 10.2874 45.0914 8.29083 43.8322C6.75315 44.8018 4.313 47.6962 2.40698 48.1146C2.70896 49.3359 3.69453 51.1048 4.27913 52.1449C8.51469 50.0339 7.3542 49.5189 11.3412 51.7908C12.2562 52.312 13.304 52.7734 14.2065 53.1222C20.0473 55.3789 25.8083 54.999 30.9738 51.8466C35.8231 48.8871 34.1266 50.8231 40.3803 53.1558C46.4909 55.4348 51.4315 54.9841 56.9167 51.8475C60.4797 49.8097 59.9883 49.8384 63.6351 51.9082C64.6191 52.4667 65.825 53.1187 67.1278 53.4045C67.5087 51.8654 68.6194 50.913 68.9999 49.3739C68.1641 49.3084 66.9742 48.7479 66.2711 48.4058C64.6131 47.5995 65.3415 47.3129 63.4229 46.3147C60.8757 44.9891 61.7926 44.8526 60.1744 43.8321C58.6134 44.8166 54.5897 49.8776 48.9418 49.8776C46.5213 49.8776 44.1567 50.102 41.9885 49.1222L43.7445 45.2341C46.8284 37.9615 43.0695 36.9569 43.1403 34.5484C43.1602 33.8602 47.2861 24.1687 48.2599 22.5332C48.5176 22.0999 48.7505 21.4844 48.9017 21.1226C49.7536 19.0827 50.4431 19.0367 49.6965 17.1747C49.2672 16.1036 48.8579 16.0961 46.8792 15.2939C41.5043 13.1145 39.6961 11.782 37.6322 19.0726L33.4402 27.9711C32.9607 28.7735 32.9519 29.4204 31.9979 30.1392C31.218 30.7268 30.0304 30.8959 29.1437 31.2294C27.7595 31.7503 26.7731 32.3315 25.7774 33.3488C24.796 34.3515 23.0479 37.8382 22.5031 39.0815C21.6114 41.1175 18.2816 47.9066 17.9188 49.3739H17.9187Z"
          fill="#8162B5"/>
    <path fill-rule="evenodd" clip-rule="evenodd"
          d="M0.000138268 36.7785C0.770843 36.3945 2.13582 35.855 3.20947 35.7707C3.20947 33.8253 3.72092 30.6627 4.22284 28.6642C4.77466 26.4679 5.42093 24.4848 6.32658 22.5845C8.36562 18.3054 9.24376 17.1908 12.0727 13.8901C13.756 11.9258 15.4984 10.469 17.8096 8.96567C21.5284 6.54651 25.1246 5.05373 29.6312 3.97875C38.9091 1.76511 48.6857 4.35722 56.1275 9.60566C56.9601 10.193 57.656 10.7515 58.4909 11.4098C59.3693 12.1024 60.0519 12.7978 60.7099 13.6024C61.3479 14.3825 61.9545 14.9716 62.6234 15.8306C67.2952 21.8295 70.2048 29.9511 69.5347 37.5343L72.9986 38.5789C73.0394 29.1719 72.2759 22.2383 66.0999 14.3192C60.0572 6.57087 49.8468 0 39.0464 0H38.6582H38.2775C30.4802 0.00351641 27.1754 0.118776 19.6978 3.69093C10.098 8.27711 2.34198 18.2961 0.529427 28.4603C0.0400976 31.2044 0.00193575 33.2596 0 36.4647V36.6208V36.7785H0.000138268ZM0.000138268 39.3897V39.2365C0.00138268 39.1797 0.0042863 39.1241 0.00871087 39.0704C0.152371 37.3469 1.04282 37.7033 3.4719 35.7661L4.30925 35.0436C4.36608 34.9936 4.52938 34.8505 4.58717 34.8014C5.20343 34.2777 6.31593 33.4019 6.95335 32.9998C8.99764 35.8755 12.9085 37.9346 16.4369 38.768C16.4767 38.7775 16.5547 38.8005 16.5949 38.8097C17.7987 39.09 19.6238 39.0457 21.6628 39.0457L19.2559 43.8321C13.8154 42.638 15.2446 43.5393 9.60422 40.8314L8.31667 40.0287C6.62234 38.9454 5.64464 39.73 4.63487 40.3884C3.09402 41.3932 1.81089 42.5444 0.53482 42.8243C0.453657 41.9047 0.0206019 40.4247 0 39.3895L0.000138268 39.3897Z"
          fill="#3B0C77"/>
    <path fill-rule="evenodd" clip-rule="evenodd"
          d="M8.55811 34.0078C10.3238 34.3951 10.9211 35.9275 12.3025 36.275L12.035 32.4964C12.035 27.4089 15.5229 21.057 19.7194 17.5666C23.1624 14.703 30.4597 11.3161 36.5275 11.5149C39.7624 11.6205 43.7398 12.6503 45.9999 13.6032C54.5678 17.2158 60.4421 24.4508 60.4421 33.5039L63.9186 35.5193C63.9186 30.1584 63.8269 28.2932 62.2021 24.2888C60.9984 21.321 59.1565 18.5486 56.7685 16.3076C54.394 14.0789 52.0361 12.4001 48.8568 10.9128C41.5023 7.47217 31.3908 7.39272 23.9772 10.7449C20.9488 12.1142 18.3407 13.8336 16.1125 15.9324C14.1519 17.7792 11.7016 20.9101 10.6551 23.3873C9.1297 26.9972 8.55838 28.8693 8.55838 34.0079L8.55811 34.0078Z"
          fill="#3B0C77"/>
    <path fill-rule="evenodd" clip-rule="evenodd"
          d="M6.73944 55.7222C6.87301 56.3315 7.36745 56.821 7.83812 57.3577C9.28039 59.0022 10.5802 60.4692 12.381 61.8953C13.5255 62.8019 14.6161 63.5941 15.8845 64.3892C17.4374 65.3627 18.8287 65.8677 20.26 66H21.8601C23.4645 65.8619 25.2008 65.3315 27.321 64.5282C30.9268 63.1618 31.5971 61.7176 33.6976 61.7176C34.9542 61.7176 36.6591 63.4007 39.3875 64.4191C45.6503 66.756 50.4198 66.3986 56.1533 63.2201C56.9916 62.7554 57.0959 62.4649 58.2453 62.1677C59.7256 61.7851 59.3019 62.2008 60.3869 61.1618C61.2681 60.3177 63.0617 59.0739 63.3836 57.9389C62.29 57.5134 62.6429 58.1532 61.3057 56.8764C60.6319 56.2335 60.132 55.6474 59.3719 55.1677C57.7853 56.4667 56.5031 57.8685 54.6743 59.0558C49.9725 62.1085 43.2535 61.9371 38.354 59.0948C35.3632 57.3602 34.9321 56.1149 33.4301 55.1676C31.8691 56.1525 27.8453 61.2135 22.1975 61.2135C17.9903 61.2135 16.1147 61.4447 12.2478 58.9978C9.25854 57.1063 8.51162 55.4925 7.22089 55.1676L6.73944 55.7219V55.7222Z"
          fill="#3B0C77"/>
    <path fill-rule="evenodd" clip-rule="evenodd"
          d="M46.0001 39.0458C46.7238 40.4668 45.5891 42.4293 45.465 43.8321C46.362 43.8321 46.9916 43.7244 47.5661 43.6813L52.8674 42.2433C54.1454 41.6474 54.3077 41.8709 56.5398 40.4084C57.8832 39.528 58.8794 38.8762 60.9214 40.3575C60.9833 40.4024 61.1538 40.5387 61.2148 40.5849C61.2578 40.6176 61.3156 40.6685 61.3589 40.7009L64.6408 42.3221C64.6755 42.3367 64.7481 42.3641 64.7822 42.3768L70.8801 44.076C70.932 44.077 71.0672 44.0543 71.1312 44.0529C71.3476 44.0471 71.9228 44.0779 72.209 44.0839C73.9552 37.0246 71.5273 39.0458 70.0696 39.0458C68.7436 39.0458 66.4134 38.3198 65.2579 37.8042C65.1135 37.7396 64.7275 37.5566 64.5437 37.4522L61.1271 35.1252C59.9363 34.349 60.0763 33.7816 58.837 33L55.3822 35.7918C52.7822 38.0509 49.4482 39.0459 45.9998 39.0459L46.0001 39.0458Z"
          fill="#3B0C77"/>
    <path fill-rule="evenodd" clip-rule="evenodd"
          d="M39.5814 45.5233L39.9304 44.8396C39.498 45.1002 39.5814 44.4287 39.5814 45.3436C39.1525 45.6811 39.3561 45.2963 39.5814 45.5233Z"
          fill="#FEFEFE"/>
    <path fill-rule="evenodd" clip-rule="evenodd"
          d="M70.337 45.0916L70.4169 45.0166C70.4115 45.0213 70.3104 45.0666 70.337 45.0916Z" fill="#FEFEFE"/>
    <path d="M86.2794 46.3333L78 19H84.074L91.2688 43.2095H88.2318L95.7519 19H101.175L108.406 43.2095H105.478L112.853 19H118.457L110.178 46.3333H103.887L97.4874 25.0914H99.1505L92.5703 46.3333H86.2794Z"
          fill="#3B0C77"/>
    <path d="M121.727 46.3333V19H127.584V46.3333H121.727Z" fill="#3B0C77"/>
    <path d="M133.59 46.3333V19H138.435L153.367 38.68H151.017V19H156.801V46.3333H151.993L137.025 26.6533H139.375V46.3333H133.59Z"
          fill="#3B0C77"/>
    <path d="M168.176 30.0114H180.36V34.9314H168.176V30.0114ZM168.61 41.2571H182.385V46.3333H162.789V19H181.915V24.0762H168.61V41.2571Z"
          fill="#3B0C77"/>
    <path d="M192 29.3158V19H196.887C198.055 19 199.084 19.2161 199.976 19.6484C200.867 20.0709 201.564 20.6653 202.066 21.4316C202.568 22.1979 202.819 23.1067 202.819 24.1579C202.819 25.1993 202.568 26.1081 202.066 26.8842C201.564 27.6505 200.867 28.2498 199.976 28.6821C199.084 29.1046 198.055 29.3158 196.887 29.3158H192ZM194.49 27.3558H196.764C197.481 27.3558 198.101 27.2281 198.623 26.9726C199.156 26.7074 199.566 26.334 199.853 25.8526C200.15 25.3712 200.298 24.8063 200.298 24.1579C200.298 23.4996 200.15 22.9347 199.853 22.4632C199.566 21.9818 199.156 21.6133 198.623 21.3579C198.101 21.0926 197.481 20.96 196.764 20.96H194.49V27.3558Z"
          fill="#3B0C77"/>
    <path d="M203.132 29.3158L207.927 19H210.386L215.196 29.3158H212.583L208.649 20.2084H209.633L205.683 29.3158H203.132ZM205.53 27.1053L206.19 25.2926H211.723L212.399 27.1053H205.53Z"
          fill="#3B0C77"/>
    <path d="M218 29.3158V20.9453H214.558V19H223.932V20.9453H220.489V29.3158H218Z" fill="#3B0C77"/>
    <path d="M223.317 29.3158L228.112 19H230.571L235.381 29.3158H232.768L228.834 20.2084H229.818L225.868 29.3158H223.317ZM225.715 27.1053L226.375 25.2926H231.908L232.584 27.1053H225.715Z"
          fill="#3B0C77"/>
    <path d="M192.855 47V36.6842H195.345V45.0547H200.739V47H192.855Z" fill="#3B0C77"/>
    <path d="M200.776 47L205.571 36.6842H208.03L212.84 47H210.227L206.293 37.8926H207.277L203.327 47H200.776ZM203.174 44.7895L203.834 42.9768H209.367L210.043 44.7895H203.174Z"
          fill="#3B0C77"/>
    <path d="M216.184 44.6421L216.046 41.8863L221.194 36.6842H223.96L219.319 41.4737L217.936 42.8884L216.184 44.6421ZM213.956 47V36.6842H216.43V47H213.956ZM221.317 47L217.49 42.5053L219.119 40.8105L224.221 47H221.317Z"
          fill="#3B0C77"/>
    <path d="M227.621 40.84H232.8V42.6968H227.621V40.84ZM227.806 45.0842H233.661V47H225.331V36.6842H233.461V38.6H227.806V45.0842Z"
          fill="#3B0C77"/>
</svg>
